<svg width="275" height="388" viewBox="0 0 275 388" fill="none" xmlns="http://www.w3.org/2000/svg">
<path d="M73.2529 263.147C82.1206 266.82 88.0964 275.226 90.5436 285.933C92.9904 296.639 91.8944 309.602 86.6457 322.273C81.3969 334.945 73.0055 344.886 63.7054 350.726C54.404 356.566 44.2346 358.284 35.3669 354.611C26.4992 350.938 20.5235 342.532 18.0763 331.825C15.6295 321.12 16.7255 308.157 21.9742 295.485C27.2229 282.814 35.6143 272.873 44.9145 267.033C54.2159 261.192 64.3853 259.474 73.2529 263.147Z" fill="#FF0000" stroke="black"/>
<path d="M105.589 276.541C114.456 280.214 120.432 288.62 122.879 299.327C125.326 310.033 124.23 322.996 118.981 335.667C113.733 348.339 105.341 358.28 96.0412 364.12C86.7398 369.96 76.5704 371.678 67.7027 368.005C58.835 364.332 52.8592 355.926 50.412 345.219C47.9652 334.514 49.0612 321.551 54.31 308.879C59.5587 296.208 67.9501 286.267 77.2502 280.427C86.5516 274.587 96.721 272.868 105.589 276.541Z" fill="#FF0000" stroke="black"/>
<ellipse cx="68.1024" cy="320.004" rx="35.5" ry="50" transform="rotate(22.5002 68.1024 320.004)" fill="#FF0000"/>
<ellipse cx="62.748" cy="336.163" rx="32.6277" ry="45.5998" transform="rotate(-69.5477 62.748 336.163)" fill="#FF0000"/>
<path d="M77.4698 277.304C79.8971 284.927 86.8693 297.925 95.3397 288.931" stroke="#B41313" stroke-width="3" stroke-linecap="round"/>
<path d="M193.753 253.521C185.28 258.03 180.14 266.971 178.734 277.864C177.328 288.755 179.666 301.553 186.108 313.661C192.551 325.769 201.86 334.857 211.679 339.775C221.498 344.694 231.786 345.426 240.259 340.918C248.733 336.409 253.872 327.467 255.279 316.574C256.685 305.683 254.347 292.886 247.904 280.778C241.461 268.67 232.153 259.582 222.334 254.663C212.514 249.744 202.227 249.012 193.753 253.521Z" fill="#FF0000" stroke="black"/>
<path d="M162.855 269.962C154.382 274.471 149.242 283.413 147.836 294.306C146.43 305.197 148.768 317.994 155.211 330.102C161.654 342.21 170.962 351.298 180.781 356.217C190.601 361.136 200.888 361.868 209.362 357.359C217.835 352.85 222.975 343.909 224.381 333.016C225.787 322.125 223.449 309.327 217.006 297.219C210.563 285.111 201.255 276.023 191.436 271.105C181.616 266.186 171.329 265.454 162.855 269.962Z" fill="#FF0000" stroke="black"/>
<ellipse cx="35.5" cy="50" rx="35.5" ry="50" transform="matrix(-0.882795 0.469758 0.469758 0.882795 212.199 248.803)" fill="#FF0000"/>
<ellipse cx="32.6277" cy="45.5998" rx="32.6277" ry="45.5998" transform="matrix(-0.437911 -0.899018 -0.899018 0.437911 266.514 334.552)" fill="#FF0000"/>
<path d="M190.917 268.018C189.234 275.839 183.544 289.446 174.248 281.309" stroke="#B41313" stroke-width="3" stroke-linecap="round"/>
<path d="M90 274C76.6667 237.333 69 152 145 104" stroke="#45B043" stroke-width="5" stroke-linecap="round"/>
<path d="M146 105C162.167 138.333 192.6 217.6 185 268" stroke="#45B043" stroke-width="5" stroke-linecap="round"/>
<path d="M141.5 105C136.5 69.8333 149.3 0.199936 240.5 2.99994" stroke="#45B043" stroke-width="5" stroke-linecap="round"/>
<path d="M241.5 3C243 43 225.6 119.2 144 104" stroke="#45B043" stroke-width="5" stroke-linecap="round"/>
<path d="M146 107L231.5 17" stroke="#45B043" stroke-width="5" stroke-linecap="round"/>
</svg>
