<svg width="408" height="382" viewBox="0 0 408 382" fill="none" xmlns="http://www.w3.org/2000/svg">
<path d="M337.992 189.862C288.492 257.362 153.692 351.862 10.4917 189.862C-2.17494 165.529 -12.1083 123.562 49.4917 150.362C50.4917 139.196 58.7917 118.862 83.9917 126.862C115.492 136.862 220.992 151.362 244.492 126.862C263.292 107.262 269.325 55.6956 269.992 32.3622C284.158 8.69555 322.292 -24.4378 361.492 32.3622C373.13 49.226 376.165 63.4101 373.82 74.747C372.599 80.6455 369.922 85.7733 366.243 90.1067C357.055 100.927 341.616 106.794 326.992 107.343L308.492 156.362C339.292 167.962 340.992 183.529 337.992 189.862Z" fill="#D9D9D9"/>
<path d="M291.492 90.3622C296.612 102.42 311.335 107.93 326.992 107.343M326.992 107.343L308.492 156.362C339.292 167.962 340.992 183.529 337.992 189.862C288.492 257.362 153.692 351.862 10.4917 189.862C-2.17494 165.529 -12.1083 123.562 49.4917 150.362C50.4917 139.196 58.7917 118.862 83.9917 126.862C115.492 136.862 220.992 151.362 244.492 126.862C263.292 107.262 269.325 55.6956 269.992 32.3622C284.158 8.69555 322.292 -24.4378 361.492 32.3622C373.13 49.226 376.165 63.4101 373.82 74.747C372.599 80.6455 369.922 85.7733 366.243 90.1067C357.055 100.927 341.616 106.794 326.992 107.343ZM269.992 200.862C227.992 233.529 125.892 276.262 53.4917 185.862C61.3251 178.029 85.4917 161.162 119.492 156.362C153.492 151.562 191.992 154.362 206.992 156.362" stroke="black"/>
<ellipse cx="3.5" cy="6.5" rx="3.5" ry="6.5" transform="matrix(-1 0 0 1 359.492 38.3622)" fill="black"/>
<ellipse cx="3.5" cy="6.5" rx="3.5" ry="6.5" transform="matrix(-1 0 0 1 325.492 38.3622)" fill="black"/>
<path d="M407.492 81.3788C387.992 76.2121 348.692 64.1788 347.492 57.3788C346.022 49.0527 308.572 69.5116 302.341 64.713C300.558 62.6016 297.992 59.5788 301.992 64.3788C302.094 64.5015 302.211 64.6128 302.341 64.713C289.724 82.1016 293.092 109.779 407.492 81.3788Z" fill="#FFCC00"/>
<path d="M407.492 81.3788C387.992 76.2121 348.692 64.1788 347.492 57.3788C346.022 49.0527 308.572 69.5116 302.341 64.713M407.492 81.3788C370.891 79.9349 298.62 74.5803 302.341 64.713M407.492 81.3788C293.092 109.779 289.724 82.1016 302.341 64.713M302.341 64.713C302.211 64.6128 302.094 64.5015 301.992 64.3788C297.992 59.5788 300.558 62.6016 302.341 64.713Z" stroke="black"/>
<path d="M212.992 274.862V342.362M212.992 342.362L261.992 345.362M212.992 342.362L240.992 365.362M212.992 342.362L206.492 380.862M128.492 272.362V334.862M128.492 334.862L162.992 337.862M128.492 334.862L155.492 360.362M128.492 334.862L114.992 369.862" stroke="#FF6600" stroke-width="7"/>
</svg>
